<?xml version="1.0" encoding="UTF-8"?><svg id="a" xmlns="http://www.w3.org/2000/svg" viewBox="0 0 297 297"><defs><style>.b{fill:#ee3e7a;}.c{fill:#fff;}</style></defs><rect class="b" width="297" height="297" rx="30" ry="30"/><path class="c" d="M132.19,96.78l-13.1,6.89,2.5-14.58-9.98-9.73h-45.82c-2.42,0-4.38,1.96-4.38,4.38v64.49c0,2.42,1.96,4.38,4.38,4.38h72.6c2.42,0,4.38-1.96,4.38-4.38v-45.87l-10.58-5.56Z"/><g><rect class="c" x="65.38" y="152.5" width="73.24" height="81.35" rx="4.38" ry="4.38" transform="translate(295.17 91.18) rotate(90)"/><path class="c" d="M227.3,156.55h-72.6c-2.42,0-4.38,1.96-4.38,4.38v64.48c0,2.42,1.96,4.38,4.38,4.38h72.6c2.42,0,4.38-1.96,4.38-4.38v-64.48c0-2.42-1.96-4.38-4.38-4.38Zm-2.74,63.22c0,1.99-1.62,3.61-3.61,3.61h-59.9c-1.99,0-3.61-1.62-3.61-3.61v-53.21c0-1.99,1.62-3.61,3.61-3.61h59.9c1.99,0,3.61,1.62,3.61,3.61v53.21Z"/><g><path class="c" d="M232.78,67.21h-63.72c-1.6,0-2.9,1.3-2.9,2.9v31.87c0,1.6,1.3,2.9,2.9,2.9h63.72c1.6,0,2.9-1.3,2.9-2.9v-31.87c0-1.6-1.3-2.9-2.9-2.9Zm-53.9,25.5c-4.67,0-7.02-2.09-7.27-5.01h5.5c.11,1.05,.77,1.51,1.77,1.51,.83,0,1.28-.23,1.28-.81,0-.66-.55-.87-2.71-1.43-4.74-1.22-5.46-2.92-5.46-4.93,0-2.13,1.49-4.82,6.63-4.82,4.74,0,6.76,2.24,6.95,4.78h-5.42c-.09-.75-.45-1.26-1.41-1.26-.64,0-1.02,.19-1.02,.68,0,.53,.47,.7,2.62,1.3,4.97,1.37,5.72,3.09,5.72,5.14,0,2.77-2.2,4.84-7.19,4.84Zm17.88-.38l-.49-2.3h-3.43l-.49,2.3h-5.67l4.12-14.72h7.83l4.25,14.72h-6.1Zm18.86,0h-11.65v-14.72h5.91v10.84h6.36l-.62,3.88Zm14.06,0h-12.07v-14.72h12.07v3.88h-6.46v1.49h6.21v3.88h-6.21v1.58h7.08l-.62,3.88Z"/><path class="c" d="M194.43,81.19c-.3,1.75-.6,3.54-.88,4.95h1.9c-.19-1.17-.62-3.39-.9-4.95h-.13Z"/></g><rect class="c" x="65.38" y="71.49" width="73.24" height="81.35" rx="4.38" ry="4.38" transform="translate(214.16 10.17) rotate(90)"/><path class="c" d="M166.25,108.54c-1.74,0-3.16-1.41-3.16-3.16v-29.84h-8.39c-2.42,0-4.38,1.96-4.38,4.38v64.49c0,2.42,1.96,4.38,4.38,4.38h72.6c2.42,0,4.38-1.96,4.38-4.38v-35.87h-65.43Z"/></g></svg>