<?xml version="1.0" encoding="UTF-8"?><svg id="a" xmlns="http://www.w3.org/2000/svg" viewBox="0 0 297 297"><defs><style>.b{fill:#ee3e7a;}.c{fill:#fff;}</style></defs><rect class="b" width="297" height="297" rx="30" ry="30"/><g><g><path class="c" d="M233.45,93.84H125.08c-2.73,0-4.94,2.21-4.94,4.94v54.2c0,2.73,2.21,4.94,4.94,4.94h108.37c2.73,0,4.94-2.21,4.94-4.94v-54.2c0-2.73-2.21-4.94-4.94-4.94Zm-91.68,43.37c-7.95,0-11.94-3.56-12.37-8.53h9.36c.18,1.78,1.31,2.58,3.01,2.58,1.42,0,2.18-.4,2.18-1.38,0-1.12-.94-1.49-4.61-2.43-8.06-2.07-9.29-4.97-9.29-8.38,0-3.63,2.54-8.2,11.28-8.2,8.05,0,11.5,3.81,11.83,8.13h-9.21c-.15-1.27-.76-2.14-2.4-2.14-1.09,0-1.74,.33-1.74,1.16,0,.91,.8,1.2,4.46,2.21,8.45,2.32,9.72,5.26,9.72,8.74,0,4.72-3.74,8.24-12.23,8.24Zm30.4-.65l-.84-3.92h-5.84l-.83,3.92h-9.65l7-25.03h13.32l7.22,25.03h-10.38Zm32.07,0h-19.81v-25.03h10.05v18.43h10.81l-1.05,6.6Zm23.91,0h-20.54v-25.03h20.54v6.6h-10.99v2.54h10.56v6.6h-10.56v2.68h12.05l-1.05,6.6Z"/><path class="c" d="M168.22,117.62c-.51,2.97-1.02,6.02-1.49,8.42h3.23c-.33-2-1.05-5.77-1.52-8.42h-.22Z"/></g><path class="c" d="M218.1,162.47v47.45c0,4.47-3.62,8.1-8.1,8.1H79.57c-4.47,0-8.1-3.62-8.1-8.1V87.08c0-4.47,3.62-8.1,8.1-8.1H210c4.47,0,8.1,3.62,8.1,8.1v2.08h12.86v-12.85c0-5.26-4.26-9.52-9.52-9.52H68.13c-5.26,0-9.52,4.26-9.52,9.52V220.7c0,5.26,4.26,9.52,9.52,9.52H221.44c5.26,0,9.52-4.26,9.52-9.52v-58.23h-12.86Z"/></g></svg>