<?xml version="1.0" encoding="UTF-8"?><svg id="a" xmlns="http://www.w3.org/2000/svg" viewBox="0 0 267.3 243"><g><path d="M259.96,40.23H98.83c-4.05,0-7.34,3.29-7.34,7.34v80.59c0,4.05,3.29,7.34,7.34,7.34h161.13c4.05,0,7.34-3.29,7.34-7.34V47.57c0-4.05-3.29-7.34-7.34-7.34ZM123.65,104.72c-11.81,0-17.75-5.29-18.4-12.68h13.92c.27,2.64,1.94,3.83,4.48,3.83,2.1,0,3.24-.59,3.24-2.05,0-1.67-1.4-2.21-6.85-3.61-11.98-3.07-13.81-7.39-13.81-12.46,0-5.39,3.78-12.19,16.78-12.19,11.97,0,17.1,5.66,17.59,12.08h-13.7c-.22-1.89-1.13-3.18-3.56-3.18-1.62,0-2.59,.49-2.59,1.73,0,1.35,1.19,1.78,6.64,3.29,12.57,3.45,14.46,7.82,14.46,13,0,7.01-5.55,12.25-18.18,12.25Zm45.2-.97l-1.24-5.83h-8.69l-1.24,5.83h-14.35l10.41-37.22h19.8l10.74,37.22h-15.43Zm47.68,0h-29.45v-37.22h14.94v27.4h16.08l-1.57,9.82Zm35.55,0h-30.53v-37.22h30.53v9.82h-16.35v3.78h15.7v9.82h-15.7v3.99h17.91l-1.56,9.82Z"/><path d="M162.97,75.59c-.76,4.42-1.51,8.95-2.21,12.52h4.8c-.49-2.97-1.56-8.58-2.26-12.52h-.32Z"/></g><path d="M237.13,142.28v70.55c0,6.65-5.39,12.04-12.04,12.04H31.16c-6.65,0-12.04-5.39-12.04-12.04V30.17c0-6.65,5.39-12.04,12.04-12.04H225.09c6.65,0,12.04,5.39,12.04,12.04v3.09h19.12V14.15c0-7.81-6.33-14.15-14.15-14.15H14.15C6.33,0,0,6.33,0,14.15V228.85c0,7.81,6.33,14.15,14.15,14.15H242.1c7.81,0,14.15-6.33,14.15-14.15v-86.57h-19.12Z"/></svg>