<?xml version="1.0" encoding="UTF-8"?><svg id="a" xmlns="http://www.w3.org/2000/svg" viewBox="0 0 279 260.15"><rect x="6.49" y="136.47" width="117.19" height="130.17" rx="7" ry="7" transform="translate(266.65 136.47) rotate(90)"/><path d="M265.59,142.97h-116.17c-3.87,0-7,3.14-7,7v103.18c0,3.87,3.14,7,7,7h116.17c3.87,0,7-3.14,7-7v-103.18c0-3.87-3.14-7-7-7Zm-4.38,101.16c0,3.19-2.59,5.78-5.78,5.78h-95.85c-3.19,0-5.78-2.59-5.78-5.78v-85.14c0-3.19,2.59-5.78,5.78-5.78h95.85c3.19,0,5.78,2.59,5.78,5.78v85.14Z"/><g><path d="M274.36,0h-101.95c-2.56,0-4.64,2.08-4.64,4.64V55.64c0,2.56,2.08,4.64,4.64,4.64h101.95c2.56,0,4.64-2.08,4.64-4.64V4.64c0-2.56-2.08-4.64-4.64-4.64Zm-86.25,40.81c-7.48,0-11.23-3.34-11.64-8.02h8.81c.17,1.67,1.23,2.42,2.83,2.42,1.33,0,2.05-.38,2.05-1.3,0-1.06-.89-1.4-4.33-2.29-7.58-1.95-8.74-4.68-8.74-7.88,0-3.41,2.39-7.71,10.61-7.71,7.58,0,10.82,3.58,11.13,7.65h-8.67c-.14-1.19-.72-2.01-2.25-2.01-1.02,0-1.64,.31-1.64,1.09,0,.85,.75,1.13,4.2,2.08,7.95,2.18,9.15,4.95,9.15,8.23,0,4.44-3.51,7.75-11.5,7.75Zm28.6-.61l-.79-3.69h-5.5l-.78,3.69h-9.08l6.59-23.55h12.53l6.79,23.55h-9.76Zm30.17,0h-18.64V16.64h9.46v17.34h10.17l-.99,6.21Zm22.49,0h-19.32V16.64h19.32v6.21h-10.34v2.39h9.93v6.21h-9.93v2.53h11.33l-.99,6.21Z"/><path d="M212.99,22.38c-.48,2.8-.96,5.67-1.4,7.92h3.04c-.31-1.88-.99-5.43-1.43-7.92h-.2Z"/></g><rect x="6.49" y="6.86" width="117.19" height="130.17" rx="7" ry="7" transform="translate(137.03 6.86) rotate(90)"/><path d="M167.9,66.14c-2.79,0-5.05-2.26-5.05-5.05V13.35h-13.43c-3.87,0-7,3.14-7,7V123.53c0,3.87,3.14,7,7,7h116.17c3.87,0,7-3.14,7-7v-57.39h-104.69Z"/></svg>